<svg version="1.1" xmlns="http://www.w3.org/2000/svg" xmlns:xlink="http://www.w3.org/1999/xlink" width="128.672" height="47.843" viewBox="0,0,128.672,47.843"><g transform="translate(-175.664,-156.0785)"><g stroke="none" stroke-miterlimit="10"><g fill="#007fff"><path d="M259.836,161.2695v37.462c0,2.862 -2.327,5.19 -5.191,5.19h-73.791c-2.861,0 -5.19,-2.328 -5.19,-5.19v-37.463c0,-2.862 2.329,-5.19 5.19,-5.19h73.791c2.864,0 5.191,2.329 5.191,5.191z"/><path d="M304.336,161.2695v37.462c0,2.862 -2.327,5.19 -5.191,5.19h-73.791c-2.861,0 -5.19,-2.328 -5.19,-5.19v-37.463c0,-2.862 2.329,-5.19 5.19,-5.19h73.791c2.864,0 5.191,2.329 5.191,5.191z"/></g><text transform="translate(186.49002,186) scale(0.5,0.5)" font-size="40" xml:space="preserve" fill="#ffffff" font-family="&quot;Gill Sans Medium&quot;, Sans Serif" font-weight="normal" text-anchor="start"><tspan x="0" dy="0">LOAD movie</tspan></text></g></g></svg>