<svg version="1.1" xmlns="http://www.w3.org/2000/svg" xmlns:xlink="http://www.w3.org/1999/xlink" width="128.672" height="47.843" viewBox="0,0,128.672,47.843"><g transform="translate(-175.664,-156.0785)"><g stroke="none" stroke-miterlimit="10"><g fill="#007fff" stroke-width="1"><path d="M259.836,161.2695v37.462c0,2.862 -2.327,5.19 -5.191,5.19h-73.791c-2.861,0 -5.19,-2.328 -5.19,-5.19v-37.463c0,-2.862 2.329,-5.19 5.19,-5.19h73.791c2.864,0 5.191,2.329 5.191,5.191z"/><path d="M304.336,161.2695v37.462c0,2.862 -2.327,5.19 -5.191,5.19h-73.791c-2.861,0 -5.19,-2.328 -5.19,-5.19v-37.463c0,-2.862 2.329,-5.19 5.19,-5.19h73.791c2.864,0 5.191,2.329 5.191,5.191z"/></g><path d="M298.61469,167.55438v25.75841c0,1.96788 -1.60002,3.56858 -3.56927,3.56858h-50.73778c-1.96719,0 -3.56858,-1.6007 -3.56858,-3.56858v-25.75909c0,-1.96788 1.60139,-3.56858 3.56858,-3.56858h50.73778c1.96925,0 3.56927,1.60139 3.56927,3.56927z" fill="#40e000" stroke-width="1"/><text transform="translate(253.04987,187.22324) scale(0.5,0.5)" font-size="40" xml:space="preserve" fill="#ffffff" stroke-width="1" font-family="&quot;Gill Sans Medium&quot;, Sans Serif" font-weight="normal" text-anchor="start"><tspan x="0" dy="0">ON</tspan></text><path d="M187.04322,195.79833v-30.14768h53.15512v30.14768z" fill="#007fff" stroke-width="0"/><text transform="translate(191.80338,185.08797) scale(0.5,0.5)" font-size="40" xml:space="preserve" fill="#ffffff" stroke-width="1" font-family="&quot;Gill Sans Medium&quot;, Sans Serif" font-weight="normal" text-anchor="start"><tspan x="0" dy="0">Loop:</tspan></text></g></g></svg>